<?xml version="1.0" encoding="UTF-8" standalone="no"?>
<!-- Generator: Adobe Illustrator 14.0.0, SVG Export Plug-In . SVG Version: 6.00 Build 43363)  -->

<svg
   xmlns:dc="http://purl.org/dc/elements/1.1/"
   xmlns:cc="http://creativecommons.org/ns#"
   xmlns:rdf="http://www.w3.org/1999/02/22-rdf-syntax-ns#"
   xmlns:svg="http://www.w3.org/2000/svg"
   xmlns="http://www.w3.org/2000/svg"
   xmlns:sodipodi="http://sodipodi.sourceforge.net/DTD/sodipodi-0.dtd"
   xmlns:inkscape="http://www.inkscape.org/namespaces/inkscape"
   version="1.1"
   id="Layer_1"
   x="0px"
   y="0px"
   width="345.91028"
   height="211.26195"
   viewBox="0 0 345.91028 211.26195"
   enable-background="new 0 0 800 600"
   xml:space="preserve"
   inkscape:version="0.91 r13725"
   sodipodi:docname="snail.svg"><metadata
     id="metadata4263"><rdf:RDF><cc:Work
         rdf:about=""><dc:format>image/svg+xml</dc:format><dc:type
           rdf:resource="http://purl.org/dc/dcmitype/StillImage" /><dc:title></dc:title></cc:Work></rdf:RDF></metadata><defs
     id="defs4261" /><sodipodi:namedview
     pagecolor="#ffffff"
     bordercolor="#666666"
     borderopacity="1"
     objecttolerance="10"
     gridtolerance="10"
     guidetolerance="10"
     inkscape:pageopacity="0"
     inkscape:pageshadow="2"
     inkscape:window-width="1280"
     inkscape:window-height="662"
     id="namedview4259"
     showgrid="false"
     fit-margin-top="0"
     fit-margin-left="0"
     fit-margin-right="0"
     fit-margin-bottom="0"
     inkscape:zoom="0.825"
     inkscape:cx="182.235"
     inkscape:cy="129.21525"
     inkscape:window-x="-8"
     inkscape:window-y="-8"
     inkscape:window-maximized="1"
     inkscape:current-layer="Layer_1" /><path
     d="m 252.187,40.533692 c 30.91,44.141 15.294,108.396998 -34.874,143.526998 -25.082,17.564 -131.346004,5.756 -146.799004,-16.316 -30.908,-44.14 -15.294,-108.399998 34.874004,-143.528998 50.168,-35.129 115.895,-27.8220002 146.799,16.318 z"
     id="path4238"
     inkscape:connector-curvature="0"
     style="fill:#754c24;stroke:#000000;stroke-width:4" /><path
     d="m 83.282996,173.97569 c -20.423,-4.668 -61.079,-45.979 -80.727,-39.695 -5.325,1.702 29.313,52.013 37.729,58.25 20.712,15.35 47.289,15.976 72.080004,15.714 39.046,-0.413 78.687,2.293 117.618,0.233 37.343,-1.976 70.428,-21.236 91.839,-51.737 16.769,-23.888 16.958,-77.112998 -26.149,-58.291998 -53.346,23.290998 -44.744,79.958998 -114.177,79.098998"
     id="path4240"
     inkscape:connector-curvature="0"
     style="fill:#c7b299;stroke:#000000;stroke-width:4" /><path
     d="m 103.694,158.92069 c -29.986004,-86.306998 20.2,-111.295998 61.661,-109.948998 34.144,1.109 58.72,32.499 52.476,67.633998 -4.998,28.108 -30.826,46.659 -57.695,41.433 -21.494,-4.182 -35.679,-25.8 -31.682,-48.288 3.197,-17.988998 19.729,-29.860998 36.924,-26.515998 13.756,2.675 22.835,16.513 20.275,30.903998 -2.045,11.513 -12.625,19.11 -23.63,16.97 -8.804,-1.713 -14.614,-10.568 -12.977,-19.778 1.309,-7.368 8.081,-12.230998 15.124,-10.86 5.634,1.096 9.354,6.762 8.305,12.658"
     id="path4242"
     inkscape:connector-curvature="0"
     style="fill:none;stroke:#8c6239;stroke-width:4;stroke-linecap:round" /><path
     id="path3155_2_"
     d="m 289.82,169.29069 c 17.655,0 54.723,-24.236 54.082,-54.082 -0.525,-24.509998 -17.712,-41.992998 -18.088,-41.651998 -9.077,-7.762 -21.283,-12.431 -35.994,-12.431"
     inkscape:connector-curvature="0"
     style="fill:#c7b299;stroke:#000000;stroke-width:4;stroke-linecap:round;stroke-linejoin:round" /><path
     id="path3155"
     d="m 290.82,61.125692 c -15.06,0 -27.276,4.605 -36.262,12.287 -0.377,-0.282 -19.874,20.811 -17.821,41.795998 2.907,29.709 37.088,54.082 54.083,54.082"
     inkscape:connector-curvature="0"
     style="fill:#c7b299;stroke:#000000;stroke-width:4;stroke-linecap:round;stroke-linejoin:round" /><g
     id="g253"
     transform="translate(-217.765,-217.95331)"><g
       id="g255"><path
         id="path3159"
         d="m 551.029,287.872 c 10e-4,8.273 -6.704,14.981 -14.977,14.981 -8.273,0 -14.979,-6.708 -14.977,-14.981 -0.002,-8.272 6.704,-14.979 14.977,-14.979 8.273,0 14.978,6.706 14.977,14.979 z"
         inkscape:connector-curvature="0"
         style="fill:#ffffff;stroke:#000000;stroke-width:4;stroke-linecap:round;stroke-linejoin:round" /><path
         id="path3161"
         d="m 537.717,290.517 c 10e-4,2.757 -2.233,4.994 -4.992,4.994 -2.758,0 -4.994,-2.237 -4.992,-4.994 -0.002,-2.758 2.234,-4.995 4.992,-4.995 2.758,0 4.993,2.237 4.992,4.995 z"
         inkscape:connector-curvature="0" /></g><g
       id="g259"><path
         id="path3157"
         d="m 489.75,287.872 c 0.002,8.273 -6.703,14.981 -14.976,14.981 -8.273,0 -14.979,-6.708 -14.977,-14.981 -0.002,-8.272 6.703,-14.979 14.977,-14.979 8.273,-10e-4 14.979,6.706 14.976,14.979 z"
         inkscape:connector-curvature="0"
         style="fill:#ffffff;stroke:#000000;stroke-width:4;stroke-linecap:round;stroke-linejoin:round" /><path
         id="path3163"
         d="m 483.51,290.517 c 0.001,2.757 -2.233,4.994 -4.991,4.994 -2.757,0 -4.992,-2.237 -4.991,-4.994 -0.001,-2.758 2.234,-4.995 4.991,-4.995 2.757,0 4.992,2.237 4.991,4.995 z"
         inkscape:connector-curvature="0" /></g></g><path
     id="path3231_2_"
     d="m 290.827,169.28069 c 17.655,0 54.085,-24.23 54.085,-54.081 0,-9.306 -2.256,-18.061998 -5.576,-25.710998 1.159,5.045 2.396,10.39 2.396,15.942998 0,29.852 -36.43,54.082 -54.083,54.082"
     inkscape:connector-curvature="0"
     style="fill-opacity:0.3137" /><path
     id="path3231"
     d="m 287.648,159.51469 c -13.683,0 -40.373,-15.698 -50.263,-37.398 5.031,26.597 37.78,47.165 53.441,47.165"
     inkscape:connector-curvature="0"
     style="fill-opacity:0.3137" /><path
     d="M 99.875996,156.14669 C 69.889996,69.840692 120.076,44.851692 161.537,46.198692 c 34.143,1.109 58.719,32.499 52.475,67.633998 -4.998,28.109 -30.826,46.66 -57.695,41.434 -21.494,-4.182 -35.679,-25.801 -31.682,-48.289 3.197,-17.987998 19.729,-29.860998 36.924,-26.514998 13.756,2.675 22.835,16.513 20.275,30.903998 -2.045,11.514 -12.625,19.111 -23.631,16.971 -8.803,-1.713 -14.613,-10.568 -12.976,-19.779 1.309,-7.367 8.082,-12.229998 15.125,-10.858998 5.634,1.096 9.354,6.761998 8.305,12.657998"
     id="path4255"
     inkscape:connector-curvature="0"
     style="fill:none;stroke:#000000;stroke-width:4;stroke-linecap:round" /><path
     d="m 232.128,200.08169 c -37.418,1.97 -68.068,0.852 -106.241,0.453 -31.115004,-0.325 -70.979004,-2.374 -97.631004,-22.028 -0.914,-0.673 -2.116,-1.839 -3.528,-3.379 6.139,8.204 11.807,14.973 14.595,16.997 20.712,15.04 47.289,15.654 72.080004,15.397 39.045,-0.406 78.686,2.247 117.62,0.229 37.342,-1.936 70.428,-20.808 91.838,-50.695 0.664,-0.926 1.297,-1.899 1.906,-2.908 -23.272,25.031 -56.745,44.15 -90.639,45.934 z"
     id="path4257"
     inkscape:connector-curvature="0"
     style="fill-opacity:0.3137" /></svg>