<?xml version="1.0" encoding="UTF-8" standalone="no"?>
<svg
   xmlns:dc="http://purl.org/dc/elements/1.1/"
   xmlns:cc="http://creativecommons.org/ns#"
   xmlns:rdf="http://www.w3.org/1999/02/22-rdf-syntax-ns#"
   xmlns:svg="http://www.w3.org/2000/svg"
   xmlns="http://www.w3.org/2000/svg"
   xmlns:sodipodi="http://sodipodi.sourceforge.net/DTD/sodipodi-0.dtd"
   xmlns:inkscape="http://www.inkscape.org/namespaces/inkscape"
   width="329.34482"
   height="430.60287"
   id="svg4136"
   version="1.1"
   inkscape:version="0.91 r13725"
   sodipodi:docname="yacht.svg">
  <metadata
     id="metadata4204">
    <rdf:RDF>
      <cc:Work
         rdf:about="">
        <dc:format>image/svg+xml</dc:format>
        <dc:type
           rdf:resource="http://purl.org/dc/dcmitype/StillImage" />
        <dc:title>Fast yacht</dc:title>
      </cc:Work>
    </rdf:RDF>
  </metadata>
  <defs
     id="defs4202" />
  <sodipodi:namedview
     pagecolor="#ffffff"
     bordercolor="#666666"
     borderopacity="1"
     objecttolerance="10"
     gridtolerance="10"
     guidetolerance="10"
     inkscape:pageopacity="0"
     inkscape:pageshadow="2"
     inkscape:window-width="1280"
     inkscape:window-height="662"
     id="namedview4200"
     showgrid="false"
     fit-margin-top="0"
     fit-margin-left="0"
     fit-margin-right="0"
     fit-margin-bottom="0"
     inkscape:zoom="1.03125"
     inkscape:cx="320.00154"
     inkscape:cy="190.5594"
     inkscape:window-x="-8"
     inkscape:window-y="-8"
     inkscape:window-maximized="1"
     inkscape:current-layer="svg4136" />
  <title
     id="title4138">Fast yacht</title>
  <g
     id="g4140"
     transform="translate(0.00153842,0.04347533)">
    <title
       id="title4142">Layer 1</title>
    <switch
       id="switch4144">
      <g
         id="g4146">
        <path
           stroke-miterlimit="10"
           d="m 161.067,299.574 c 1.224,-19.44 0.612,-44.27999 -1.98,-76.03199 C 156.38699,191.646 152.067,147.546 145.587,110.538 138.963,73.566002 130.647,38.501999 120.063,3.546 c 1.224,-2.16 2.772,-3.24 4.5,-3.528 1.728,-0.216 3.78,0.36 6.012,2.016 9.54,28.08 17.568,57.564 24.516,89.999997 6.948,32.472003 12.636,68.292003 16.48799,103.031993 3.636,34.63201 5.472,68.364 5.50801,102.997 -5.328,0.50302 -10.656,1.00702 -16.02,1.51102 z"
           id="path4148"
           inkscape:connector-curvature="0"
           style="stroke:#000000;stroke-width:0.036;stroke-miterlimit:10" />
        <path
           stroke-miterlimit="10"
           d="M 163.58701,298.06299 C 165.495,281.681 165.459,258.461 163.08299,227.575 160.599,196.399 156.099,150.571 149.58299,113.563 142.959,76.591004 134.64301,41.851002 124.059,7.543001 c -0.756,-2.196 -0.828,-3.312 0.072,-3.636 0.828,-0.36 2.484,0.36 4.968,1.872 8.676,27.756 16.2,56.916 22.968,89.279998 6.732,32.328001 13.428,68.976001 17.028,102.995991 3.42,33.94802 4.536,66.34803 3.49201,99 -2.98801,0.323 -5.97602,0.64701 -9,1.008 z"
           id="path4150"
           inkscape:connector-curvature="0"
           style="fill:#c0c0c0;stroke:#000000;stroke-width:0.036;stroke-miterlimit:10" />
        <path
           stroke-miterlimit="10"
           d="m 168.08701,298.81799 c -3.63601,-0.28799 -9,0.21601 -16.48801,1.512 -7.56,1.22399 -18.144,2.84402 -28.008,5.97601 -9.864,3.134 -21.564,7.452 -30.527997,12.52801 C 84.027,323.76599 76.502998,329.38199 70.058998,335.82599 92.018997,348.03 110.487,360.88199 126.579,374.814 c 16.05599,13.96801 28.72801,28.36599 38.988,44.026 25.84799,-7.01999 47.98799,-14.32801 67.536,-22.5 19.47799,-8.20801 35.31601,-16.73899 48.492,-26.026 1.47699,-2.34201 3.31299,-5.86799 5.508,-10.97998 2.16,-5.18403 4.608,-11.556 7.488,-19.51203 -9.324,-9.146 -19.548,-16.41598 -31.5,-22.5 -11.988,-6.08398 -23.58,-10.44 -39.492,-13.5 -16.056,-3.13199 -34.235,-4.75198 -55.51199,-5.004 z"
           id="path4152"
           inkscape:connector-curvature="0"
           style="stroke:#000000;stroke-width:0.036;stroke-miterlimit:10" />
        <path
           stroke-miterlimit="10"
           d="m 163.839,300.582 c 2.916,8.82001 5.256,18.14401 7.021,28.944 1.729,10.65399 4.465,20.95099 3.491,34.77399 -1.11501,13.824 -4.46401,29.34002 -10.043,47.376 l 1.87199,4.646 7.70401,-2.33999 c 2.592,-9.50599 4.46401,-19.54999 5.616,-30.564 1.116,-11.052 2.84399,-21.45599 1.151,-35.24399 -1.94301,-13.932 -5.797,-29.448 -12.133,-47.376 -1.54701,-0.072 -3.095,-0.14402 -4.679,-0.21601 z"
           id="path4154"
           inkscape:connector-curvature="0"
           style="fill:#2cb0cf;stroke:#000000;stroke-width:0.036;stroke-miterlimit:10" />
        <path
           stroke-miterlimit="10"
           d="m 172.479,305.26199 c 18.612,0.68601 34.776,2.448 49.465,5.832 14.54401,3.31302 25.70399,8.02802 37.367,13.75202 11.521,5.61599 21.88999,12.02398 31.5,19.61999 l 1.15201,-5.14599 C 276.62701,327.40399 262.371,318.65601 248.07899,312.5 233.858,306.41598 220.07001,304.79599 207.255,302.92401 c -12.96,-2.01602 -24.84001,-2.62802 -36.18,-2.12402 0.64801,2.23001 1.11599,3.67001 1.404,4.462 0.181,0.72 0.181,0.72 0,0 z"
           id="path4156"
           inkscape:connector-curvature="0"
           style="fill:#2cb0cf;stroke:#000000;stroke-width:0.036;stroke-miterlimit:10" />
        <path
           stroke-miterlimit="10"
           d="m 161.5,300.798 c -5.688,0.43399 -11.808,1.36798 -18.648,2.81 -6.984,1.366 -14.00399,2.73401 -22.176,5.61399 -8.316,2.91601 -18.396,6.841 -26.352003,11.19601 -7.956001,4.17599 -14.579994,8.712 -20.556,13.75201 l 4.896004,4.68 c 9.900002,-7.52201 19.907997,-13.534 30.563999,-18.43201 10.62,-4.85999 23.50799,-8.172 32.688,-10.51199 9.03599,-2.34 16.272,-3.672 21.70799,-3.70801 -0.685,-1.79999 -1.405,-3.60001 -2.12399,-5.4 z"
           id="path4158"
           inkscape:connector-curvature="0"
           style="fill:#2cb0cf;stroke:#000000;stroke-width:0.036;stroke-miterlimit:10" />
        <path
           stroke-miterlimit="10"
           d="m 82.624001,340.00201 c 7.236,-6.048 15.227997,-10.979 24.515999,-15.37201 9.288,-4.39199 20.952,-7.84799 30.564,-10.51199 9.54,-2.70001 21.41999,-4.75201 25.91999,-5.616 4.28501,-0.936 4.28501,-0.936 0,0 1.36801,7.056 2.80802,14.21998 4.17601,22.176 1.40399,7.85001 3.564,16.09399 3.996,24.73199 0.252,8.56699 -0.50399,17.314 -2.124,26.388 -1.65599,8.96399 -4.176,17.96399 -7.704,27.288 -6.66,-9.57599 -14.724,-18.79199 -24.47999,-28.224 C 127.552,371.28601 112.9,359.73001 103.648,352.853 94.396003,346.01401 87.519996,341.73001 82.624,340.00201 Z"
           id="path4160"
           inkscape:connector-curvature="0"
           style="fill:#ffffff;stroke:#000000;stroke-width:0.036;stroke-miterlimit:10" />
        <path
           stroke-miterlimit="10"
           d="m 175.28799,308.754 c 11.19501,-0.036 21.63601,0.612 31.752,2.08801 10.00801,1.36798 19.11501,3.60199 28.43801,6.55298 9.28801,2.91501 17.856,6.371 27.07199,11.19501 9.14502,4.824 18.07202,10.514 27.324,17.496 l -9.35998,22.17599 c -18.17999,10.04401 -35.388,18.57602 -52.73902,26.138 -17.35299,7.486 -33.87599,13.5 -50.39898,18.43201 2.01599,-8.74799 3.52699,-18.03601 4.67999,-28.008 1.15199,-10.044 2.845,-19.044 1.87199,-31.716 C 182.704,340.29001 179.967,325.78201 175.288,308.754 Z"
           id="path4162"
           inkscape:connector-curvature="0"
           style="fill:#f0ebe6;stroke:#000000;stroke-width:0.036;stroke-miterlimit:10" />
        <path
           stroke-miterlimit="10"
           d="m 96.626999,409.806 c 12.276001,9.79199 18.144001,12.52801 37.367991,16.09399 19.33201,3.526 57.45701,5.866 78.87601,3.95999 21.275,-1.944 35.96401,-9.25198 48.06,-15.40799 11.98801,-6.156 13.85998,-18.03601 23.57999,-21.23998 9.721,-3.09601 20.95202,-2.26801 34.30902,2.59197 0.46899,-6.83999 -0.504,-11.15997 -3.06101,-13.53597 -2.62799,-2.26801 -6.695,-2.44602 -12.34799,-0.25202 -2.98801,-2.30398 -2.19601,-4.31799 2.08798,-6.048 4.392,-1.76398 12.13202,-3.23999 23.79602,-4.42798 -9.68502,-7.12802 -17.64102,-10.69202 -24.264,-10.98001 -6.624,-0.25199 -11.629,2.81 -15.15601,9.324 -9.108,-3.34799 -16.776,-5.07599 -23.57999,-5.58001 -6.876,-0.53998 -11.70001,0.25201 -16.81302,2.772 -5.11099,2.556 -9.57499,6.552 -13.53498,12.384 C 235.513,376.436 233.463,374.92401 229.646,374.78 c -3.961,-0.146 -10.72899,0.68399 -16.56099,3.996 -5.72402,3.203 -10.87201,9.504 -17.96401,15.15399 -7.23601,5.616 -15.58799,11.594 -25.19999,18.21701 -3.13201,-6.58899 -6.58802,-12.45501 -10.51201,-17.74701 -4.068,-5.328 -9.07199,-11.846 -13.068,-14.00598 -4.03199,-2.12201 -7.55999,-1.94202 -10.72799,0.93799 -2.26801,-6.768 -4.86,-12.70801 -8.17201,-17.96399 -3.348,-5.29202 -7.812,-12.168 -11.448,-13.53601 -3.672,-1.40399 -7.164,0.25201 -10.476,5.112 -1.044,-4.24799 -4.032,-8.138 -9.360004,-11.664 -5.435997,-3.672 -13.175995,-8.42401 -22.391998,-9.79199 -9.395996,-1.36801 -22.644001,0.14398 -32.652,1.61999 -9.971998,1.332 -19.763998,2.664 -26.603999,6.76801 -6.948,4.13998 -11.628,10.07998 -14.472,17.96399 3.744,-2.98801 7.344,-4.06601 10.944,-3.23999 3.6,0.828 10.296,3.60199 10.512,8.17398 0.072,4.5 -3.096001,10.80002 -9.792,18.89801 14.184,-5.68799 27.107998,-3.52799 39.419998,-3.06 12.312,0.54001 15.984005,8.35199 27.792004,16.59601 11.775002,8.20599 5.474998,2.77099 17.713997,12.59799 z"
           id="path4164"
           inkscape:connector-curvature="0"
           style="stroke:#000000;stroke-width:0.036;stroke-miterlimit:10" />
        <path
           stroke-miterlimit="10"
           d="M 167.58299,417.72601 C 175.61,412.00201 183.314,406.134 191.379,399.979 c 8.028,-6.229 16.884,-15.371 23.796,-19.11499 6.769,-3.89001 13.896,-5.79602 16.81301,-3.492 2.69999,2.34 1.94299,12.23999 0.25299,17.496 -1.72901,5.146 -5.112,9.32398 -10.297,13.06598 -4.429,-3.06 -8.531,-4.354 -12.601,-3.742 -4.03199,0.54001 -4.824,4.64401 -11.664,7.02002 -7.019,2.267 -16.95599,4.392 -30.09601,6.51401 z"
           id="path4166"
           inkscape:connector-curvature="0"
           style="fill:#7fc0db;stroke:#000000;stroke-width:0.036;stroke-miterlimit:10" />
        <path
           stroke-miterlimit="10"
           d="m 237.13499,382.73401 c 2.05301,-4.06802 5.112,-7.34601 9.32401,-9.828 4.17599,-2.628 9.899,-4.60801 15.62401,-5.36402 5.50799,-0.79199 13.17599,0.072 17.74798,0.93701 4.53601,0.75699 8.24402,1.943 9.57602,3.995 1.25998,1.98001 2.44599,5.54401 -1.87201,7.92001 -4.53601,2.306 -15.444,3.276 -24.518,5.832 -9.144,2.48398 -18.79199,5.474 -29.62799,9.108 1.836,-2.70001 3.13199,-4.86001 3.74399,-7.02002 0.615,-2.08798 0.615,-3.996 0.002,-5.57998 z"
           id="path4168"
           inkscape:connector-curvature="0"
           style="fill:#7fc0db;stroke:#000000;stroke-width:0.036;stroke-miterlimit:10" />
        <path
           stroke-miterlimit="10"
           d="m 292.431,370.81799 c 0.46899,-2.81 1.80099,-4.824 4.42899,-6.04898 2.52102,-1.26102 6.372,-2.19501 10.729,-1.40301 4.24802,0.64599 9.10702,2.556 14.72501,5.58001 -6.73099,0.646 -11.73499,1.58399 -15.40799,2.80799 -3.74302,1.11599 -5.473,2.26999 -6.30002,4.42801 -0.86298,2.05398 -0.396,4.824 1.40301,8.17398 2.017,-1.00998 4.24799,-1.44001 6.29999,-1.15198 2.08902,0.17999 5.112,1.07999 6.301,2.556 1.18801,1.36798 1.367,3.31299 0.68502,5.832 C 311.33499,389.936 307.267,389 302.94601,388.784 c -4.319,-0.32401 -7.487,0.64599 -13.535,1.402 -6.30102,0.72199 -21.673,3.67398 -23.328,3.02399 -1.58402,-0.828 9.57498,-5.75998 13.75198,-7.452 4.06702,-1.65399 8.02701,-1.14999 10.51199,-2.80798 2.23203,-1.944 3.16803,-5.832 3.49201,-7.92001 0.32101,-2.12399 -0.14798,-3.384 -1.40799,-4.21201 z"
           id="path4170"
           inkscape:connector-curvature="0"
           style="fill:#7fc0db;stroke:#000000;stroke-width:0.036;stroke-miterlimit:10" />
        <path
           stroke-miterlimit="10"
           d="m 166.647,426.582 c -17.641,-1.36801 -31.789,-3.492 -43.417,-6.768 -11.556,-3.31299 -17.712,-7.56199 -25.668004,-12.60199 -8.135994,-5.18399 -15.875999,-13.176 -22.391998,-17.71201 -6.479996,-4.608 -9.792,-7.70401 -16.343998,-9.57599 -6.731998,-1.836 -14.327999,-2.30401 -23.327999,-1.40201 9.503998,-1.44 17.964001,-3.02401 25.667999,-4.89599 7.739998,-1.90802 16.379997,-3.96003 20.087997,-6.30002 3.456001,-2.48398 1.764,-5.328 0.900002,-7.70398 -0.935997,-2.37601 -2.987999,-4.42801 -6.300003,-6.30002 4.428001,0.036 8.820007,0.216 13.320007,0.68402 4.5,0.43399 8.963997,1.008 13.535997,1.87198 -4.715998,7.38001 -7.271998,13.03201 -7.956003,17.496 -0.683998,4.42801 0.648003,7.12802 3.996002,8.64002 3.420001,1.29599 12.924001,-1.69 15.876001,-0.216 2.664,1.40399 -1.08,6.62399 0.432,8.85598 1.44,2.16001 4.248,3.38401 8.424,3.96003 -0.432,7.84799 1.044,12.81399 4.428,15.18997 3.384,2.16 12.384,-2.37598 15.87599,-1.40198 3.27601,1.04401 2.48401,6.11999 4.42801,7.45099 1.836,1.07901 3.888,-1.297 6.984,-0.469 3.024,0.86399 6.83999,2.521 11.448,5.36399 17.641,-3.99597 29.987,-7.056 37.584,-9.32398 7.345,-2.41202 4.75199,-4.14001 7.235,-4.212 2.52099,-0.036 5.112,1.29599 7.91999,3.996 4.5,-0.646 8.06402,-2.08801 10.98002,-4.46402 2.80799,-2.37598 4.82299,-5.68799 6.04798,-9.79199 4.53602,-1.58399 9.18001,-3.348 14.472,-4.896 5.18502,-1.58401 10.656,-3.34799 16.562,-4.896 -7.09299,4.284 -9.68601,7.056 -7.92099,8.172 1.80099,1.116 7.849,0.64801 18.43301,-1.40399 -2.16,4.646 -6.40802,9.108 -12.60101,13.53598 -6.336,4.35602 -15.37201,9.07202 -24.731,12.60202 -9.433,3.384 -19.18801,6.768 -31.5,7.91998 -12.456,1.08002 -26.38699,0.612 -42.48,-1.40399 z"
           id="path4172"
           inkscape:connector-curvature="0"
           style="fill:#1c7ab5;stroke:#000000;stroke-width:0.036;stroke-miterlimit:10" />
        <path
           stroke-miterlimit="10"
           d="m 167.799,411.67801 c -0.32399,-3.13202 -5.79599,-9.46802 -9.32399,-14.004 -3.67202,-4.53601 -8.28,-10.26001 -11.88001,-12.60001 -3.744,-2.30499 -6.696,-2.376 -9.828,-1.18801 -3.204,1.11602 -7.812,4.14202 -9.108,7.95602 -1.404,3.81598 -1.656,12.168 1.188,14.22198 2.84399,1.728 12.34801,-3.996 15.87601,-3.02398 3.31199,0.936 2.73599,7.27099 4.64399,8.85498 1.98,1.43902 5.148,-0.685 7.01999,0 1.62001,0.647 1.62001,3.38501 3.49201,3.49099 1.90899,0 8.06399,-0.86398 7.91999,-3.70797 z"
           id="path4174"
           inkscape:connector-curvature="0"
           style="fill:#7fc0db;stroke:#000000;stroke-width:0.036;stroke-miterlimit:10" />
        <path
           stroke-miterlimit="10"
           d="m 131.188,379.242 c -0.216,-3.67199 -1.584,-7.34399 -3.96,-11.44799 -2.484,-4.21201 -7.236,-10.90802 -10.512,-12.85202 -3.384,-1.87198 -6.516,-0.75699 -9.108,1.402 -2.628,1.98002 -5.4,6.98401 -6.516,10.72901 -1.296002,3.672 -3.527997,9.28799 -0.468,11.448 3.168,1.906 16.164,-0.47001 19.116,0.936 2.7,1.54801 -3.132,5.76001 -2.34,7.92001 0.864,2.08799 3.132,3.31299 7.236,4.21198 0.756,-3.23999 1.692,-5.832 2.808,-7.91998 1.116,-2.08701 2.267,-3.56302 3.744,-4.42701 z"
           id="path4176"
           inkscape:connector-curvature="0"
           style="fill:#7fc0db;stroke:#000000;stroke-width:0.036;stroke-miterlimit:10" />
        <path
           stroke-miterlimit="10"
           d="m 103.396,354.00601 c -3.924,-5.07602 -8.387996,-8.854 -13.535999,-11.88 -5.292,-2.98801 -9.792,-4.93201 -17.244003,-5.832 -7.559998,-1.04401 -19.259998,-0.646 -27.323997,0.216 -8.136002,0.828 -15.48,2.98798 -20.771999,4.68198 -5.292,1.61801 -8.064001,2.69802 -10.944,4.89602 -3.024,2.124 -5.184,4.646 -6.768,7.70398 4.068,-0.28799 7.2,-0.108 9.792,0.68402 2.483999,0.68598 3.996,1.836 5.364,3.74399 1.26,1.87201 2.16,4.32001 2.556,7.48801 4.067999,-5.79602 9.936001,-10.04401 17.748001,-12.60001 7.883999,-2.70001 18.503998,-3.20401 28.943996,-3.06201 10.331001,0.108 20.735001,1.47601 32.184011,3.96002 z"
           id="path4178"
           inkscape:connector-curvature="0"
           style="fill:#7fc0db;stroke:#000000;stroke-width:0.036;stroke-miterlimit:10" />
        <path
           stroke-miterlimit="10"
           d="m 24.771,368.94601 c -0.468,1.224 -1.044001,2.62799 -1.872,4.21198 -0.828001,1.58401 -1.836,3.20401 -3.024,5.14599 3.816,-1.18798 10.368,-2.69799 20.051998,-4.67999 9.684002,-2.052 32.436001,-3.996 37.584003,-7.23599 4.823997,-3.45599 -3.060005,-10.224 -7.704002,-12.384 -4.788002,-2.08802 -13.571999,-1.43799 -19.835999,0 -6.336002,1.36801 -13.068001,5.58001 -17.279999,8.17199 -4.212002,2.45002 -6.803001,4.754 -7.920002,6.77002 z"
           id="path4180"
           inkscape:connector-curvature="0"
           style="fill:#7fc0db;stroke:#000000;stroke-width:0.036;stroke-miterlimit:10" />
        <path
           d="m 78.195,340.254 c 1.620003,-0.86399 -7.667999,-1.43799 -12.599998,-1.87201 -4.932003,-0.53998 -10.584,-1.29599 -16.560001,-0.46799 -6.192001,1.008 -16.416,3.74399 -19.152,5.832 -2.628,1.76401 -0.755999,5.54401 3.528,5.36399 4.212002,-0.288 13.860001,-5.004 21.456001,-6.51798 7.487999,-1.51001 21.421001,-1.69 23.327999,-2.33801 z"
           id="path4182"
           inkscape:connector-curvature="0"
           style="fill:#f0ebe6" />
        <path
           d="m 54.868,356.13 c -3.383999,-0.25201 -6.372002,0.32401 -9.108002,1.87201 -2.879997,1.512 -7.955997,6.51599 -7.452,7.236 0.540001,0.46798 6.336002,-2.448 10.728001,-3.74402 4.355999,-1.29599 9.144001,-2.664 14.940002,-3.95999 -3.024002,-0.46799 -6.049004,-0.93601 -9.108002,-1.404 z"
           id="path4184"
           inkscape:connector-curvature="0"
           style="fill:#e1ddd8" />
        <path
           d="m 121.828,364.51801 c -1.008,-1.654 -2.916,-5.146 -4.896,-6.04801 -2.196,-0.936 -5.328,-1.40201 -7.452,0.68601 -2.196,2.08798 -5.796,10.836 -5.364,11.664 0.396,0.574 4.536,-6.948 7.704,-7.452 3.132,-0.54001 9.18,4.176 10.944,4.42798 1.548,0.034 0.071,-1.65799 -0.936,-3.27798 z"
           id="path4186"
           inkscape:connector-curvature="0"
           style="fill:#e1ddd8" />
        <path
           d="m 153.11099,396.01801 c -2.69999,-4.28202 -5.39999,-6.94602 -8.38798,-8.388 -3.02401,-1.43802 -7.164,-1.43802 -9.36,0 -2.23201,1.40399 -3.42002,4.03198 -3.70801,8.17199 1.476,-3.56299 4.06801,-4.932 8.17199,-3.95999 4.032,0.93799 9.18001,4.06799 15.84002,9.53998 -0.82801,-1.76398 -1.69101,-3.564 -2.55602,-5.36398 z"
           id="path4188"
           inkscape:connector-curvature="0"
           style="fill:#f0ebe6" />
        <path
           d="m 205.63499,391.37399 c 5.76001,-4.96798 10.584,-8.24399 14.47301,-9.828 3.815,-1.65598 7.235,-1.47598 8.60401,0.25201 1.25999,1.72901 1.08,5.14801 -0.68502,10.26001 -0.35899,-3.81402 -2.34099,-5.76001 -6.084,-5.832 -3.85199,-0.072 -9.10798,1.512 -16.308,5.14798 z"
           id="path4190"
           inkscape:connector-curvature="0"
           style="fill:#f0ebe6" />
        <path
           d="m 250.20399,374.56299 c -0.97299,-0.79199 7.95601,-3.78 14.00402,-3.95999 5.97598,-0.288 20.664,1.40201 21.70797,2.30401 0.89902,0.82797 -9.89999,2.19599 -15.87597,2.59198 -6.15702,0.215 -18.79201,-0.14499 -19.83602,-0.936 z"
           id="path4192"
           inkscape:connector-curvature="0"
           style="fill:#f0ebe6" />
        <path
           d="m 314.354,367.32599 c 0.612,-0.9 -5.25601,-1.58399 -8.17199,-1.62 -2.987,0.036 -8.279,0.72 -9.07102,1.62 -0.685,0.75601 1.655,2.664 4.64502,2.80801 2.84299,-0.14401 11.771,-2.052 12.59799,-2.80801 z"
           id="path4194"
           inkscape:connector-curvature="0"
           style="fill:#f0ebe6" />
        <path
           stroke-miterlimit="10"
           d="m 27.436001,229.37399 c 6.084,-0.43199 12.959999,0.18001 20.771999,1.692 7.776001,1.36602 15.408001,3.27401 25.811996,7.27101 10.404007,3.96 20.484001,6.65999 35.928004,16.849 15.372,10.18799 33.624,24.58899 55.584,43.775 -1.764,-27.504 -3.78,-53.60401 -6.192,-79.704 -2.448,-26.244 -4.644,-49.212 -8.24401,-75.70801 C 147.388,116.945 142.384,84.796996 137.59599,61.540999 132.664,38.248999 127.624,19.780999 122.08,5.020999 110.2,13.372999 98.248001,26.693 85.251999,45.808997 72.183998,64.997001 54.688,95.200995 44.860001,118.781 35.14,142.289 29.668,166.877 26.896,185.597 c -2.917,18.505 -2.736,32.905 0.540001,43.77699 z"
           id="path4196"
           inkscape:connector-curvature="0"
           style="stroke:#000000;stroke-width:0.036;stroke-miterlimit:10" />
        <path
           stroke-miterlimit="10"
           d="m 31.863001,224.046 c 5.687998,-0.432 11.951998,0.21599 19.187998,1.54799 7.128002,1.44001 14.292004,2.916 23.832005,6.77001 9.503998,3.744 18.935997,6.048 33.155996,15.516 14.22,9.396 30.996,22.68 51.3,40.42801 0.46801,-23.11001 -0.072,-45.82801 -1.764,-69.264 -1.836,-23.472 -4.71601,-44.74801 -8.49601,-70.48801 C 145.263,122.6 139.71899,88.471998 135.075,65.036001 130.323,41.527998 125.787,23.311998 121.071,9.019998 109.407,19.207998 97.887001,33.067998 85.827003,51.427999 73.623001,69.788 58.539001,96.823995 49.323001,118.244 c -9.252003,21.34799 -15.156002,42.48 -18.108002,60.336 -2.951,17.782 -2.736,32.614 0.648001,45.466 z"
           id="path4198"
           inkscape:connector-curvature="0"
           style="fill:#2cb0cf;stroke:#000000;stroke-width:0.036;stroke-miterlimit:10" />
      </g>
    </switch>
  </g>
</svg>
