<?xml version="1.0" encoding="UTF-8" standalone="no"?>
<!-- Created with Inkscape (http://www.inkscape.org/) -->

<svg
   xmlns:dc="http://purl.org/dc/elements/1.1/"
   xmlns:cc="http://creativecommons.org/ns#"
   xmlns:rdf="http://www.w3.org/1999/02/22-rdf-syntax-ns#"
   xmlns:svg="http://www.w3.org/2000/svg"
   xmlns="http://www.w3.org/2000/svg"
   xmlns:sodipodi="http://sodipodi.sourceforge.net/DTD/sodipodi-0.dtd"
   xmlns:inkscape="http://www.inkscape.org/namespaces/inkscape"
   width="600"
   height="600"
   id="svg2"
   sodipodi:version="0.32"
   inkscape:version="0.91 r13725"
   version="1.0"
   sodipodi:docname="black-splash.svg"
   inkscape:output_extension="org.inkscape.output.svg.inkscape">
  <defs
     id="defs4">
    <inkscape:perspective
       sodipodi:type="inkscape:persp3d"
       inkscape:vp_x="0 : 526.18109 : 1"
       inkscape:vp_y="0 : 1000 : 0"
       inkscape:vp_z="744.09448 : 526.18109 : 1"
       inkscape:persp3d-origin="372.04724 : 350.78739 : 1"
       id="perspective10" />
    <inkscape:perspective
       id="perspective2464"
       inkscape:persp3d-origin="372.04724 : 350.78739 : 1"
       inkscape:vp_z="744.09448 : 526.18109 : 1"
       inkscape:vp_y="0 : 1000 : 0"
       inkscape:vp_x="0 : 526.18109 : 1"
       sodipodi:type="inkscape:persp3d" />
  </defs>
  <sodipodi:namedview
     id="base"
     pagecolor="#ffffff"
     bordercolor="#666666"
     borderopacity="1.0"
     gridtolerance="10000"
     guidetolerance="10"
     objecttolerance="10"
     inkscape:pageopacity="0.0"
     inkscape:pageshadow="2"
     inkscape:zoom="1.4"
     inkscape:cx="269.98149"
     inkscape:cy="222.34526"
     inkscape:document-units="px"
     inkscape:current-layer="layer1"
     showgrid="false"
     inkscape:window-width="1280"
     inkscape:window-height="662"
     inkscape:window-x="-8"
     inkscape:window-y="-8"
     inkscape:window-maximized="1" />
  <metadata
     id="metadata7">
    <rdf:RDF>
      <cc:Work
         rdf:about="">
        <dc:format>image/svg+xml</dc:format>
        <dc:type
           rdf:resource="http://purl.org/dc/dcmitype/StillImage" />
        <dc:title></dc:title>
      </cc:Work>
    </rdf:RDF>
  </metadata>
  <g
     inkscape:label="Layer 1"
     inkscape:groupmode="layer"
     id="layer1">
    <path
       style="fill:#000000"
       d="m 169.42717,516.78344 c -2.92383,-1.69958 -4.70365,-7.27562 -4.70278,-14.73342 9.4e-4,-8.04086 1.83803,-12.44918 13.25851,-31.81525 18.55416,-31.4629 27.28831,-53.01906 38.29988,-94.52534 2.13091,-8.03206 2.14833,-8.45346 0.42832,-10.35407 -2.12227,-2.34507 -6.2511,-2.5697 -9.20489,-0.50079 -1.1625,0.81425 -3.13359,3.99347 -4.3802,7.06493 -1.95563,4.81834 -2.77051,5.73358 -5.93982,6.67133 -4.66911,1.38151 -10.78817,-0.49771 -13.3666,-4.10502 -1.70837,-2.39007 -1.71765,-3.00296 -0.17311,-11.43894 1.37973,-7.53573 1.42746,-9.48754 0.30879,-12.6269 -3.95641,-11.10315 -18.78431,-18.69879 -20.68803,-9.13503 -0.34992,1.75787 11.69132,7.30492 10.50079,13.24425 -2.06877,10.32069 -11.82748,33.5027 -16.04686,35.68463 -5.11056,2.64276 -51.03383,9.04709 -39.57392,-14.71091 2.85265,-5.91394 -7.41719,-9.45719 -5.23019,-13.35359 2.41785,-4.30771 15.12984,-9.85285 26.83937,-14.84206 17.58447,-7.4924 0.79095,-16.41505 4.19642,-25.49436 2.27403,-6.0628 21.67219,-10.76088 17.82782,-13.7125 -5.59084,-4.29251 -13.57561,1.43317 -27.07294,19.41332 -8.90074,11.85691 -14.00096,16.20036 -20.8131,17.72485 -11.98625,2.6824 -20.931903,-1.55717 -26.742786,-12.67409 -2.203648,-4.21585 -2.640942,-6.38663 -2.645379,-13.13198 -0.0076,-11.52532 3.967828,-17.60699 15.062291,-23.04265 6.265484,-3.06974 7.891604,-3.35174 30.079394,-5.21632 19.55354,-1.64322 25.81508,-2.83728 42.65159,-8.13359 18.1383,-5.7058 23.26038,-9.98138 19.65427,-16.4061 -2.66061,-4.74021 -6.48575,-6.04752 -21.67458,-7.40765 -14.10343,-1.26294 -31.29398,-16.99008 -34.56799,-20.40891 -2.51831,-2.62971 -8.99727,-20.74472 32.4313,-16.52605 7.84731,0.79909 -4.69994,13.44529 4.82053,18.72087 12.1302,6.7217 16.30949,12.538 20.36668,12.99531 4.94464,0.55733 11.98897,-2.36926 13.78627,-5.72755 4.68254,-8.74941 -9.33131,-29.73216 -24.5054,-40.43875 -11.29001,-7.96604 -18.90242,-15.19776 -23.42381,-28.66676 -2.05815,-6.13111 -2.54464,-9.55168 -2.54464,-17.89164 0,-12.50474 1.31064,-17.29075 6.11932,-22.34572 3.08142,-3.23925 7.37572,-5.54771 10.81937,-5.87764 7.45537,-0.71428 10.39325,9.30481 12.77262,23.93054 0.79627,4.89468 6.36996,35.86795 9.68111,42.64764 5.13382,10.51166 -0.34118,1.48001 5.13382,10.51166 7.83537,12.92536 20.37896,15.89104 24.11325,6.87569 1.01379,-2.44751 0.92671,-4.37653 -0.48374,-10.71619 -2.46102,-11.06186 -2.30889,-18.81823 0.54511,-27.79247 1.63854,-5.1523 2.42626,-10.0706 2.46214,-15.37298 0.0516,-7.63397 -0.0791,-8.0511 -6.26069,-19.96906 -6.38826,-12.31644 -7.11692,-14.80727 -5.31608,-18.17217 1.55535,-2.9062 7.72323,-6.26081 10.85052,-5.90142 l 2.79931,0.3217 0.50508,20.71501 0.50508,20.71501 5.26918,10.59972 c 5.13058,10.32088 6.50813,15.28338 7.88583,28.40779 0.71855,6.84512 3.38876,9.87579 9.41312,10.68383 6.85105,0.91892 8.8479,-0.18626 14.74558,-8.1611 7.94569,-10.74417 10.65164,-12.75466 17.16676,-12.75466 4.58571,0 6.01287,0.51906 10.18392,3.7039 3.81564,2.91345 5.76044,3.70389 9.11314,3.70389 8.1735,0 17.64127,-8.01531 17.64127,-14.93489 0,-1.50862 -1.40249,-6.22793 -3.11665,-10.48736 -2.65585,-6.59939 -3.05319,-8.71523 -2.68733,-14.31042 0.68985,-10.55035 5.94411,-22.04714 12.19151,-26.67616 2.28064,-1.68984 4.30432,-2.1086 10.10153,-2.0903 8.83485,0.0279 32.03583,2.20589 35.25176,7.40826 3.669,5.93529 14.07943,35.60195 -8.09465,42.06633 -28.96607,8.44443 -24.00281,21.28408 -13.09918,30.10914 4.69581,3.80064 11.15887,4.67771 16.00514,2.17197 1.89771,-0.9812 7.58761,-5.77919 12.64424,-10.66219 9.56446,-9.23609 12.59489,-7.54777 17.2793,-9.26859 10.11133,-3.71439 17.64537,8.14553 25.04463,11.89333 7.85714,3.97972 -4.73793,24.01252 -8.96568,25.49517 -7.22953,2.53536 -23.16538,-2.47536 -31.79113,0.32865 -13.04736,4.24138 -18.33711,8.84823 -18.33711,15.96984 0,3.10053 3.71172,8.43133 7.15284,10.27296 3.64339,1.94988 11.45876,2.84373 16.5337,1.89095 7.59653,-1.42616 12.38545,-4.16694 26.50523,-15.16934 35.30505,-27.51034 20.21697,-56.28428 43.20854,-55.27871 8.05267,0.3522 37.25202,24.02491 40.67623,26.29094 7.46364,4.93921 9.43272,15.08985 4.75444,24.50924 -2.93324,5.90588 -3.85623,6.17172 -16.19289,4.66398 -27.94792,-3.4157 4.11405,33.13476 -22.62895,46.86539 -11.42139,5.86406 -36.40591,-5.43214 -37.36435,-0.32325 -1.01786,5.42566 -5.3009,-0.32521 -3.30427,6.01067 l 6.04455,19.18106 c -0.14287,7.81118 -11.33386,-0.55393 -20.87875,-0.64468 -14.84513,-0.14114 -12.44986,19.38679 -1.22076,26.83382 7.12338,4.72417 13.36953,6.35023 21.70116,5.64945 24.70517,-2.07795 23.23535,-2.13445 30.28433,1.16417 16.84334,7.88194 25.58747,22.69393 26.67589,45.18716 0.96992,20.04454 -2.42656,31.11113 -10.59602,34.52455 -11.60086,4.84715 -33.42482,-1.28611 -40.29039,-27.61847 -3.76931,-14.45691 -7.00709,-15.56314 -18.93599,-17.06175 -6.83207,-0.85831 -8.37414,-15.50884 -14.17652,-20.80873 -5.11952,-4.67616 -5.59099,-10.56726 -10.63156,-5.63916 -4.62001,4.51691 -6.24757,8.2603 -6.24757,14.36943 0,6.67668 1.95667,10.64013 12.47307,25.26564 11.22777,15.61483 16.07597,25.69249 16.72514,34.76553 0.36151,5.0527 0.12274,7.5958 -0.81981,8.7315 -2.51974,3.03611 -8.84289,5.49537 -14.12942,5.49537 -6.71798,0 -10.63831,-3.49645 -11.42517,-10.18983 -1.7006,-14.46613 -3.74611,-28.17817 -4.68561,-31.40989 -4.09067,-14.07118 -10.3382,-19.08957 -22.50216,-14.00715 -5.97667,2.49722 9.4926,16.83392 -2.83148,21.54066 l -13.57143,5.18312 -3.43237,2.31972 c -4.37702,2.95813 -6.3056,2.92019 -10.01006,-0.19692 -3.54379,-2.98189 -10.15027,-15.42749 -13.29397,-25.04372 -3.16924,-9.69443 -6.06037,-12.84575 -11.78511,-12.84575 -7.87427,0 -6.28875,8.5169 -0.17874,20.36522 5,9.69583 -2.62339,-1.3849 12.79338,20.48288 12.64959,17.9427 22.04575,23.78013 22.04575,23.78013 14.59123,17.22141 -10.12928,32.64138 -14.68923,34.37508 -3.72426,1.41596 -13.07401,8.15087 -19.43382,14.48849 -6.47914,6.45653 -26.87951,-9.7995 -28.53106,-28.68148 -1.66526,-19.03882 8.69606,-29.80079 6.3752,-40.28617 -3.62177,-16.36277 -3.6167,-40.09559 -7.93967,-44.41856 -2.69566,-2.69566 -7.64876,-2.75436 -11.93414,-0.14144 -4.38049,2.67092 -7.52179,9.20051 -8.14172,16.92359 -0.49167,6.12507 15.15624,13.44912 4.90646,16.69723 l 1.84399,11.78524 3.59743,9.0581 c 0,0 -0.0645,10.55462 -2.5973,12.45614 -3.30101,2.47829 -13.03494,3.45042 -18.83573,1.88113 -8.6397,-2.33729 -10.11697,-12.81815 -4.35318,-30.88486 3.79199,-11.88606 -3.63406,-18.38824 -5.46847,-24.94007 -1.49988,-5.35708 1.39307,-15.97111 -1.91401,-15.97111 -10.18788,0 -22.97353,37.77519 -30.42938,89.90358 -4.59827,32.14941 -6.71513,39.41189 -13.30589,45.64985 -5.91983,5.60295 -16.24739,8.43679 -20.89698,5.73405 z"
       id="path3336"
       inkscape:connector-curvature="0"
       sodipodi:nodetypes="sssssssssssssssssssssssssssssssssssssssssssssssscccsssssssssssssssssssssssssssssssssssssssssssssssssssscsssssssssssssscccssssssss" />
  </g>
</svg>
