<?xml version="1.0" encoding="UTF-8"?>
<svg width="875.88501" height="656.15442" xmlns="http://www.w3.org/2000/svg">
 <title>red and turquoise fish</title>

 <metadata id="metadata6">image/svg+xmlrybaVaclavek DavidZS a MS Machovo nam.czrybafish</metadata>
 <g>
  <title>Layer 1</title>
  <g id="layer1">
   <g transform="matrix(0.8705, 0, 0, 0.857415, 56.1197, -5.86944)" id="g13699">
    <path fill="#7f0000" fill-rule="evenodd" stroke="#0000ff" stroke-width="0" stroke-linecap="round" stroke-linejoin="round" stroke-miterlimit="4" d="m374.466888,565.671082l0.28125,0.5625c-41.91861,89.379089 57.397614,128.870117 64.15625,131.4375l0.125,0.25c0.030457,-0.064148 0.063477,-0.123413 0.09375,-0.1875c0.109558,0.040955 0.4375,0.1875 0.4375,0.1875l10.740906,-43.863708c41.920471,-89.380188 -68.419708,-85.568909 -75.178406,-88.136292l-0.125,-0.25c-0.030518,0.06427 -0.063354,0.12323 -0.09375,0.1875c-0.109528,-0.040955 -0.4375,-0.1875 -0.4375,-0.1875z" id="path10998"/>
    <path fill="#ff0000" fill-rule="nonzero" stroke="#0000ff" stroke-width="0" stroke-linecap="round" stroke-linejoin="round" stroke-miterlimit="4" stroke-dashoffset="0" d="m805.69397,104.111c32.525024,-29.198799 98.489014,-61.1283 136.655029,-64.248901c-66.304016,53.078804 -66.484985,85.226898 -73.307983,129.948906c-6.822998,44.722 -31.785034,104.415009 -29.229004,191.338989c2.333984,79.364014 32.143982,153.888031 38.554993,200.358978c6.409973,46.471008 2.583984,85.815002 63.078003,135.664001c-37.25,-2.303955 -119.380981,-45.22998 -133.509033,-58.795959c-55.167969,-52.971008 -35.342957,-128.246002 -25.104004,-171.90802c17.70105,-75.488983 -25.089966,-44.893005 -39.000977,-98.25c13.911011,-53.358002 55.867981,-26.255005 39.28302,-100.526001c-8.570007,-38.375992 -32.234009,-114.373993 22.579956,-163.581993l0,0l0,0l0,0l0,0z" id="rect2007"/>
    <path fill="#ff0000" fill-rule="nonzero" stroke="#0000ff" stroke-width="0" stroke-linecap="round" stroke-linejoin="round" stroke-miterlimit="4" stroke-dashoffset="0" id="path7373" d="m806.028992,103.446999c32.525024,-29.1987 98.488037,-61.128197 136.653992,-64.248898c-66.303955,53.078899 -66.484985,85.226902 -73.307983,129.948902c-6.822998,44.722 -31.784973,104.414001 -29.228027,191.338989c2.334045,79.364014 32.144043,153.888031 38.554016,200.358002c6.411011,46.471008 2.583984,85.815979 63.078003,135.664978c-37.248962,-2.303955 -119.380005,-45.230957 -133.507996,-58.795959c-55.167969,-52.971008 -35.343018,-128.246002 -25.10498,-171.909027c17.701965,-75.488983 -25.090027,-44.891998 -39.001038,-98.25c13.911011,-53.356995 55.868042,-26.253998 39.28302,-100.524994c-8.56897,-38.376999 -32.232971,-114.374008 22.580994,-163.581993l0,0l0,0z" opacity="0.75"/>
    <path fill="#ff0000" fill-rule="nonzero" stroke="#0000ff" stroke-width="0" stroke-linecap="round" stroke-linejoin="round" stroke-miterlimit="4" stroke-dashoffset="0" d="m403.144257,121.12748c31.920135,-14.784157 57.417725,-25.229851 84.8927,-32.807617c27.475006,-7.577789 63.489166,-15.874504 122.67746,-23.670319c-60.113647,47.204849 -57.400818,67.511604 -37.791626,104.920326c-11.008362,-5.393265 -38.821838,-20.008682 -67.304718,-26.894653c-34.762573,-8.404129 -51.818054,-7.262451 -79.346252,-7.456833c-27.528229,-0.194382 -46.725067,5.30809 -55.441132,8.166306c-8.020294,2.630051 -3.918396,-4.206818 32.313568,-22.25721z" id="path23581" opacity="0.65"/>
    <path fill="#ff0000" fill-rule="nonzero" stroke="#0000ff" stroke-width="0" stroke-linecap="round" stroke-linejoin="round" stroke-miterlimit="4" stroke-dashoffset="0" d="m264.582123,235.307358c0,30.018112 -24.334518,54.352585 -54.352615,54.352585c-30.018097,0 -54.352585,-24.334473 -54.352585,-54.352585c0,-30.018082 24.334488,-54.352554 54.352585,-54.352554c30.018097,0 54.352615,24.334473 54.352615,54.352554z" id="path2777"/>
    <path fill="#ff0000" fill-rule="nonzero" stroke="#0000ff" stroke-width="0" stroke-linecap="round" stroke-linejoin="round" stroke-miterlimit="4" stroke-dashoffset="0" d="m514.67334,357.275085c0,57.469818 -22.199738,109.525818 -58.076019,147.214325c-35.876343,37.688568 -97.633972,60.568329 -123.294037,60.885406c-16.332489,0.201782 -156.191101,-33.56958 -192.067413,-71.258087c-41.126831,-35.165405 -57.613312,-61.813049 -62.640472,-98.600586c-1.96508,-23.007965 18.246651,-108.211792 60.047302,-144.930527c35.876312,-37.688522 145.485199,-101.534546 200.19162,-101.534546c54.706451,0 81.886658,23.321091 117.763,61.009628c35.876282,37.688522 58.076019,89.744537 58.076019,147.214386z" id="path1883"/>
    <path fill="#ff0000" fill-rule="nonzero" stroke="#0000ff" stroke-width="0" stroke-linecap="round" stroke-linejoin="round" stroke-miterlimit="4" stroke-dashoffset="0" id="path10986" d="m515.003845,355.440308c0,57.469818 -22.199738,109.525818 -58.076019,147.214325c-35.876343,37.688568 -97.633972,60.568329 -123.294067,60.885406c-16.332489,0.201782 -162.191101,-35.56958 -198.067413,-73.258026c-41.126816,-35.165436 -51.613297,-59.81311 -56.640472,-96.600616c-1.965034,-23.007996 18.246666,-108.211823 60.047302,-144.930527c35.876312,-37.688538 145.485229,-101.534561 200.19165,-101.534561c54.706451,0 81.886658,23.321091 117.763,61.009628c35.876282,37.688538 58.076019,89.744553 58.076019,147.214371z"/>
    <path fill="#ff0000" fill-rule="nonzero" stroke="#0000ff" stroke-width="0" stroke-linecap="round" stroke-linejoin="round" stroke-miterlimit="4" stroke-dashoffset="0" d="m428.825623,132.941711c-34.267426,0 -66.993744,5.684158 -96.998779,15.94455c96.536835,33.011322 164.810394,113.765137 164.810394,208.125c0,94.359833 -68.27356,175.144989 -164.810394,208.156281c30.005035,10.260376 62.731354,15.94458 96.998779,15.94458c72.258881,0 137.711243,-25.10321 185.098755,-65.667358c23.693787,-20.282074 63.923218,-69.752747 116.601624,-94.257965c52.678406,-24.505219 71.806396,-24.045013 71.806396,-54.967072c0,-30.922058 -24.190002,-32.119171 -76.868408,-61.225708c-52.678467,-29.106506 -87.845825,-86.122452 -111.539612,-106.40062c-47.387512,-40.556351 -112.839874,-65.651688 -185.098755,-65.651688z" id="path1874"/>
    <g id="g9179">
     <path fill="#ff0000" fill-rule="nonzero" stroke="#0000ff" stroke-width="0" stroke-linecap="round" stroke-linejoin="round" stroke-miterlimit="4" stroke-dashoffset="0" d="m286.582092,227.307297c0.011505,30.02623 -24.326294,54.373398 -54.35257,54.373398c-30.026245,0 -54.364105,-24.347168 -54.352585,-54.373398c-0.01152,-30.026245 24.32634,-54.373428 54.352585,-54.373428c30.026276,0 54.364075,24.347183 54.35257,54.373428z" id="path1886"/>
     <path fill="#ff0000" fill-rule="nonzero" stroke="#0000ff" stroke-width="0" stroke-linecap="round" stroke-linejoin="round" stroke-miterlimit="4" stroke-dashoffset="0" d="m262.797333,246.914474c0.005951,8.698349 -7.386719,15.752731 -16.508026,15.752731c-9.121307,0 -16.513931,-7.054382 -16.507996,-15.752731c-0.005936,-8.698303 7.386688,-15.752716 16.507996,-15.752716c9.121307,0 16.513977,7.054413 16.508026,15.752716z" id="path2775"/>
     <path fill="#ff0000" fill-rule="evenodd" stroke="#0000ff" stroke-width="0" stroke-linecap="round" stroke-linejoin="round" marker-start="none" stroke-miterlimit="4" id="path6337" d="m302.198547,282.233215c100.449463,203.237274 -219.748314,122.898438 -219.748314,122.898438"/>
     <path fill="#ff0000" fill-rule="evenodd" stroke="#0000ff" stroke-width="0" stroke-linecap="round" stroke-linejoin="round" stroke-miterlimit="4" id="path9184" d="m287.855743,290.041077c26.261597,-13.700104 26.261597,-13.700104 26.261597,-13.700104"/>
    </g>
    <path fill="#ff0000" fill-rule="nonzero" stroke="#0000ff" stroke-width="0" stroke-linecap="round" stroke-linejoin="round" stroke-miterlimit="4" stroke-dashoffset="0" id="path17237" d="m428.825623,132.941711c-34.267426,0 -66.993744,5.684158 -96.998779,15.94455c96.536835,33.011322 164.810394,113.765137 164.810394,208.125c0,94.359833 -68.27356,175.144989 -164.810394,208.156281c30.005035,10.260376 62.731354,15.94458 96.998779,15.94458c72.258881,0 137.711243,-25.10321 185.098755,-65.667358c23.693787,-20.282074 63.923218,-69.752747 116.601624,-94.257965c52.678406,-24.505219 71.806396,-24.045013 71.806396,-54.967072c0,-30.922058 -24.190002,-32.119171 -76.868408,-61.225708c-52.678467,-29.106506 -87.845825,-86.122452 -111.539612,-106.40062c-47.387512,-40.556351 -112.839874,-65.651688 -185.098755,-65.651688z"/>
    <path fill="#ff0000" fill-rule="evenodd" stroke="#0000ff" stroke-width="0" stroke-linecap="round" stroke-linejoin="round" stroke-miterlimit="4" d="m465.547516,95.546181c-44.767273,18.428131 -29.577179,36.781914 -29.577179,36.781914" id="path27156"/>
    <path fill="#ff0000" fill-rule="evenodd" stroke="#0000ff" stroke-width="0" stroke-linecap="round" stroke-linejoin="round" stroke-miterlimit="4" id="path28946" d="m541.041992,75.967529c-82.288116,25.16198 -62.737885,59.482803 -62.737885,59.482803"/>
    <path fill="#ff0000" fill-rule="evenodd" stroke="#0000ff" stroke-width="0" stroke-linecap="round" stroke-linejoin="round" stroke-miterlimit="4" d="m608.033508,65.633293c-106.289276,29.749214 -88.477966,80.428795 -88.477966,80.428795" id="path28948"/>
    <path fill="#ff7f00" fill-rule="nonzero" stroke="#0000ff" stroke-width="0" stroke-linecap="round" stroke-linejoin="round" stroke-miterlimit="4" stroke-dashoffset="0" d="m428.825623,132.941711c-34.267426,0 -66.993744,5.684158 -96.998779,15.94455c96.536835,33.011322 164.810394,113.765137 164.810394,208.125c0,94.359833 -68.27356,175.144989 -164.810394,208.156281c30.005035,10.260376 62.731354,15.94458 96.998779,15.94458c72.258881,0 137.711243,-25.10321 185.098755,-65.667358c23.693787,-20.282074 63.923218,-69.752747 116.601624,-94.257965c52.678406,-24.505219 71.806396,-24.045013 71.806396,-54.967072c0,-30.922058 -24.190002,-32.119171 -76.868408,-61.225708c-52.678467,-29.106506 -87.845825,-86.122452 -111.539612,-106.40062c-47.387512,-40.556351 -112.839874,-65.651688 -185.098755,-65.651688z" id="path5587"/>
    <g id="g10976" opacity="0.85">
     <path fill="#ff0000" fill-rule="nonzero" stroke="#0000ff" stroke-width="0" stroke-linecap="round" stroke-linejoin="round" stroke-miterlimit="4" stroke-dashoffset="0" id="path9185" d="m561.324036,732.196777c-33.5849,62.112793 -109.381622,-9.405273 -127.876282,-40.655823c-20.997375,-33.277832 -34.915222,-77.190247 17.999969,-160.631104c7.391907,-9.692932 -4.55365,-27.643829 33.604126,-24.311859c24.735779,2.159973 3.666992,34.484222 19.950378,51.973785c18.013336,16.735107 37.724762,44.569946 50.115875,69.016907c14.301575,28.216187 23.131897,72.161804 6.205933,104.608093z"/>
     <path fill="#ff0000" fill-rule="nonzero" stroke="#0000ff" stroke-width="0" stroke-linecap="round" stroke-linejoin="round" stroke-miterlimit="4" stroke-dashoffset="0" d="m561.324036,732.196777c-33.5849,62.112793 -109.381622,-9.405273 -127.876282,-40.655823c-20.997375,-33.277832 -34.915222,-77.190247 17.999969,-160.631104c7.391907,-9.692932 -4.55365,-27.643829 33.604126,-24.311859c24.735779,2.159973 3.666992,34.484222 19.950378,51.973785c18.013336,16.735107 37.724762,44.569946 50.115875,69.016907c14.301575,28.216187 23.131897,72.161804 6.205933,104.608093z" id="path10081"/>
    </g>
   </g>
  </g>
  <circle id="svg_1" r="53.712891" cy="195.845581" cx="250.11499" stroke-width="5" stroke="#000000" fill="#ffffff"/>
  <circle id="svg_2" r="15.296875" cy="219.845581" cx="232.11499" stroke-width="5" stroke="#000000" fill="#000000"/>
  <circle id="svg_11" r="1" cy="123.845581" cx="168.11499" stroke="#000000" fill="#aaffff"/>
  <path fill="#000000" stroke="#000000" stroke-width="5" stroke-dasharray="null" stroke-linejoin="null" stroke-linecap="null" d="m176.063004,409.503479c33.326416,-1.822937 65.541946,-191.4077 46.529251,-67.166931c-19.012711,124.240784 -46.529251,67.166931 -46.529251,67.166931z" id="svg_4" transform="rotate(51.8573, 200.942, 360.622)"/>
 </g>
</svg>