<?xml version="1.0" encoding="UTF-8"?>
<svg width="399.00409" height="432.22641" xmlns="http://www.w3.org/2000/svg">

 <g>
  <title>Layer 1</title>
  <g externalResourcesRequired="false" id="layer1">
   <path fill="#ffffff" fill-rule="evenodd" stroke-width="1px" id="path3282" d="m17.939072,365.329651c14.338333,14.606934 41.604355,3.984253 64.073547,11.764709c18.219086,6.308838 26.889023,47.494324 48.080338,40.015808c21.191315,-7.478455 57.118561,-26.887634 80.962921,-20.296204c23.84436,6.59137 53.551178,51.282349 72.750366,29.455994c16.306061,-18.537354 24.104248,-64.741882 64.888184,-60.08667c40.908661,4.669434 49.735504,1.544434 44.245026,-48.913208c-3.184937,-29.269958 22.199524,-53.578247 -12.144226,-76.305054c-53.554047,-35.439026 -138.728851,-13.392761 -190.334015,21.275818c-59.091705,39.697937 -194.070541,81.13678 -172.522141,103.088806z"/>
   <path fill="#dbdbe3" fill-opacity="0.627451" fill-rule="nonzero" stroke-width="3.710362" stroke-linecap="round" stroke-linejoin="round" stroke-miterlimit="4" id="path2399" d="m341.85025,180.154648c0,88.169846 35.79129,110.899429 35.79129,151.791702c0,22.680695 -35.398468,-27.978363 -55.258636,-16.512085c-18.420105,10.634827 -41.110565,20.681 -64.143921,4.840973c-13.716888,-9.433105 5.410278,-24.788086 -21.109741,-24.788086c-21.153809,0 -53.393127,15.220428 -73.563477,18.499359c-18.337128,2.980896 -37.91153,-16.4888 -70.263153,-5.391846c-20.119019,6.901031 -91.302612,56.104675 -91.302612,33.424042c0,-28.885193 33.273239,-60.352112 33.273239,-161.864059c0,-98.341331 68.673264,-178.1546 153.288498,-178.1546c84.615265,0 153.288513,79.813269 153.288513,178.1546z"/>
   <path fill="#ffffff" fill-rule="nonzero" stroke="#000000" stroke-width="3.710362" stroke-linecap="round" stroke-linejoin="round" stroke-miterlimit="4" id="path2383" d="m341.85025,180.154648c0,88.169846 35.79129,110.899429 35.79129,151.791702c0,22.680695 -48.883728,6.134338 -68.743927,17.600616c-18.420105,10.634796 -10.874268,26.654663 -37.395172,36.932831c-19.05426,7.38443 -44.459778,-26.281982 -70.979797,-26.281982c-21.153809,0 -60.196899,28.376282 -78.534027,19.357269c-18.337128,-9.019135 -16.597839,-39.06604 -44.949463,-41.969025c-21.159058,-2.166595 -75.039154,27.113281 -75.039154,4.432648c0,-28.885193 33.273239,-60.352112 33.273239,-161.864059c0,-98.341331 68.673264,-178.1546 153.288498,-178.1546c84.615265,0 153.288513,79.813269 153.288513,178.1546z"/>
   <path fill="#ffffff" fill-rule="nonzero" stroke="#000000" stroke-width="4" stroke-linecap="round" stroke-linejoin="round" stroke-miterlimit="4" id="path2387" d="m138.029541,89.967163c-20.56311,0.000031 -37.251343,19.174377 -37.251343,42.801392c0,23.626984 16.688232,42.801331 37.251343,42.801331c15.888306,0.000061 29.459869,-11.460571 34.811157,-27.564362c5.351288,16.10379 18.922821,27.564423 34.811127,27.564362c20.56311,0 37.251373,-19.174347 37.251373,-42.801331c0,-23.627014 -16.688263,-42.801361 -37.251373,-42.801392c-15.885162,0 -29.457672,11.427338 -34.811127,27.526123c-5.353485,-16.098785 -18.925995,-27.526123 -34.811157,-27.526123z"/>
   <path fill="#000000" fill-rule="nonzero" stroke-width="55.657169" stroke-linecap="round" stroke-linejoin="round" stroke-miterlimit="4" id="path2389" d="m214.945282,140.131287a16.129738,16.195545 0 1 1 -32.259476,0a16.129738,16.195545 0 1 1 32.259476,0z"/>
   <path fill="#000000" fill-rule="nonzero" stroke-width="55.657169" stroke-linecap="round" stroke-linejoin="round" stroke-miterlimit="4" id="path2396" d="m163.759216,140.131287a16.129738,16.195545 0 1 1 -32.259476,0a16.129738,16.195545 0 1 1 32.259476,0z"/>
   <path fill="#000000" fill-opacity="0.117647" fill-rule="evenodd" stroke-width="1px" id="path2398" d="m288.591248,62.648254c5.902466,-2.079956 35.597992,37.204559 41.012207,78.488831c3.682434,28.079163 2.121307,71.417786 6.363953,96.166504c4.242645,24.748779 40.915466,88.99054 26.162964,88.388367c-34.648254,-1.414185 -56.751892,-57.149414 -48.840637,-136.86499c8.921936,-89.899292 -38.625092,-121.271149 -24.698486,-126.178711z"/>
   <path fill="#000000" fill-opacity="0.117647" fill-rule="evenodd" stroke-width="1px" id="path3170" d="m302.733368,341.955444c-8.018616,7.855469 -22.627411,45.254822 -30.405579,28.284241c-7.778168,-16.970581 -1.286713,-47.190857 -7.071075,-91.923889c-4.399628,-34.024292 -20.587189,-74.625427 -8.677643,-68.438599c11.867981,6.165283 20.49295,24.750549 31.305084,57.124878c9.452759,28.304077 24.456055,65.541992 14.849213,74.953369z"/>
   <path fill="#000000" fill-opacity="0.117647" fill-rule="evenodd" stroke-width="1px" id="path3172" d="m187.468903,351.34021c-7.67099,8.195313 -26.44342,17.953918 -35.941132,16.106567c-12.511261,-2.433411 -14.437988,-44.388428 -9.414215,-71.6604c4.949738,-26.870056 14.486511,-66.041931 22.455841,-71.917786c9.691986,-7.145996 0.702026,26.773071 9.792908,73.403076c6.956207,35.680664 20.592102,46.071411 13.106598,54.068542z"/>
   <path fill="#000000" fill-opacity="0.117647" fill-rule="evenodd" stroke-width="1px" id="path3174" d="m84.944504,328.520386c-11.107681,-1.620483 -21.61496,1.140198 -30.405579,3.535522c-12.297363,3.350891 -0.781143,-15.154419 15.556335,-47.37616c12.355743,-24.368713 15.255112,-49.483826 22.420319,-56.317261c8.535141,-8.139893 -2.387466,23.697632 -4.414215,54.624939c-1.8797,28.683472 5.035767,46.72821 -3.15686,45.532959z"/>
   <path fill="#ffffff" fill-opacity="0.627451" fill-rule="evenodd" stroke-width="1px" id="path3279" d="m61.609985,110.024384c27.33667,-73.670013 79.953308,-89.138458 93.338104,-88.388336c20.326843,1.139221 14.723755,30.623749 -24.748749,41.012207c-40.231033,10.588074 -82.971985,86.136108 -68.589355,47.376129z"/>
  </g>
 </g>
</svg>