<?xml version="1.0" encoding="UTF-8"?>
<svg width="640" height="480" xmlns="http://www.w3.org/2000/svg" xmlns:xlink="http://www.w3.org/1999/xlink">
 <title>pop rock logo</title>
 <defs>
  <symbol viewBox="0 0 140.301 129.383" id="svg_5" xmlns:xlink="http://www.w3.org/1999/xlink">
   <g id="svg_1">
    <polygon fill="#FFF466" stroke="#000000" stroke-width="4.375" stroke-miterlimit="7" points="76.435 10.906 60.356 48.289 44.052 30.703 44.239 56.352 9.122 43.383 34.458 67.625 18.771 76.062 37.552 82.461 10.606 98.633 44.231 96.242 45.177 121 59.88 98.805 71.356 111.414 75.896 100.906 94.771 114.234 92.083 99.344 127.083 116.406 102.09 91.312 125.551 77.836 100.442 73.93 123.771 52.727 89.176 58.445 98.286 32.141 78.997 46.953" id="svg_2"/>
    <polygon points="79.474 0 77.504 5.422 79.192 45.531 83.114 42.922" id="svg_3"/>
    <polygon points="131.215 50.367 127.715 50.609 101.786 73.914 106.301 75.297" id="svg_4"/>
    <polygon points="132.278 77.602 129.286 76.93 103.583 91.883 107.708 94.188" id="svg_7"/>
    <polygon points="133.293 120.695 140.301 124.32 107.388 89.016 105.926 93.492" id="svg_8"/>
    <polygon points="140.301 124.32 124.911 116.422 93.731 100.828 94.099 105.531" id="svg_9"/>
    <polygon points="96.528 116.844 98.918 120.508 97.981 103.234 92.06 99.867" id="svg_10"/>
    <polygon points="43.786 121.781 44.325 129.383 63.497 105.688 58.45 102.258" id="svg_11"/>
    <polygon points="7.224 99.125 0.997 102.5 44.083 101.195 44.06 96.789" id="svg_12"/>
    <polygon points="71.942 113.914 73.426 117.312 79.192 103.398 76.411 101.539" id="svg_13"/>
    <polygon points="73.426 117.312 70.692 111.992 59.95 100.75 57.13 102.922" id="svg_14"/>
    <polygon points="98.918 120.508 97.138 116.211 77.106 102.969 74.051 105.531" id="svg_15"/>
    <polygon points="103.388 26.477 100.872 28.445 90.458 58.812 95.083 57.891" id="svg_16"/>
   </g>
  </symbol>
  <linearGradient y2="1" x2="1" y1="0" x1="0" id="svg_17">
   <stop stop-color="#ff0000" offset="0"/>
   <stop stop-color="#ff0000" offset="1"/>
  </linearGradient>
 </defs>
 <g>
  <title>Layer 1</title>
  <use x="-113.066822" y="-182.466491" transform="rotate(13.667880058288574 448.07614135742176,400.2899780273437) matrix(1.2691498029987094,0,0,0.914294623854339,39.60104793604264,180.85927191880288) " xlink:href="#svg_5" id="svg_6" fill="url(#svg_17)"/>
 </g>
</svg>