<?xml version="1.0" encoding="UTF-8" standalone="no"?>
<svg
   xmlns:dc="http://purl.org/dc/elements/1.1/"
   xmlns:cc="http://creativecommons.org/ns#"
   xmlns:rdf="http://www.w3.org/1999/02/22-rdf-syntax-ns#"
   xmlns:svg="http://www.w3.org/2000/svg"
   xmlns="http://www.w3.org/2000/svg"
   xmlns:sodipodi="http://sodipodi.sourceforge.net/DTD/sodipodi-0.dtd"
   xmlns:inkscape="http://www.inkscape.org/namespaces/inkscape"
   width="685.15674"
   height="685.79163"
   id="svg4214"
   version="1.1"
   inkscape:version="0.91 r13725"
   sodipodi:docname="sun.svg">
  <metadata
     id="metadata4227">
    <rdf:RDF>
      <cc:Work
         rdf:about="">
        <dc:format>image/svg+xml</dc:format>
        <dc:type
           rdf:resource="http://purl.org/dc/dcmitype/StillImage" />
        <dc:title>sun01</dc:title>
      </cc:Work>
    </rdf:RDF>
  </metadata>
  <defs
     id="defs4225" />
  <sodipodi:namedview
     pagecolor="#ffffff"
     bordercolor="#666666"
     borderopacity="1"
     objecttolerance="10"
     gridtolerance="10"
     guidetolerance="10"
     inkscape:pageopacity="0"
     inkscape:pageshadow="2"
     inkscape:window-width="1280"
     inkscape:window-height="662"
     id="namedview4223"
     showgrid="false"
     fit-margin-top="0"
     fit-margin-left="0"
     fit-margin-right="0"
     fit-margin-bottom="0"
     inkscape:zoom="0.44097209"
     inkscape:cx="356.43133"
     inkscape:cy="319.19806"
     inkscape:window-x="-8"
     inkscape:window-y="-8"
     inkscape:window-maximized="1"
     inkscape:current-layer="svg4214" />
  <title
     id="title4216">sun01</title>
  <g
     id="g4218"
     transform="translate(-40.419163,-194.66646)">
    <title
       id="title4220">Layer 1</title>
    <path
       d="M 377.78299,875.409 C 367.17801,863.55499 362.005,856.26703 357.116,846.297 c -4.01401,-8.18903 -6.14801,-16.32703 -7.59101,-28.95099 -1.55398,-13.60602 -0.96899,-22.77301 3.263,-51.14704 1.939,-12.99597 2.35801,-26.95397 1.00501,-33.45495 -0.93201,-4.48004 -6.16699,-20.77405 -7.13001,-22.19605 -0.77899,-1.14898 -1.46698,-0.42499 -7.38598,7.76203 -5.57102,7.70501 -12.983,14.836 -25.16602,24.21301 -5.884,4.52997 -12.198,9.39301 -14.031,10.80896 -28.64499,22.117 -41.38599,39.63306 -46.03099,63.28302 -0.37301,1.89801 -0.83699,10.58398 -1.032,19.30102 -0.368,16.48401 -0.60601,19.32599 -1.54,18.35498 -0.76699,-0.79797 -6.087,-16.83599 -7.66,-23.09301 -3.31,-13.16199 -3.96201,-22.48297 -2.308,-32.97901 2.40199,-15.24396 10.68199,-36.38299 19.78198,-50.50897 1.31501,-2.04199 2.39103,-3.84802 2.39103,-4.01501 0,-0.16602 1.23098,-2.27301 2.73498,-4.68097 9.789,-15.67603 13.487,-24.41803 15.552,-36.76203 0.99201,-5.92999 1.41699,-19.99096 0.60401,-19.99096 -0.22501,0 -2.469,1.35894 -4.986,3.02099 -11.01001,7.26801 -18.40499,10.19696 -42.018,16.64301 -25.877,7.06298 -35.465,10.34497 -46.194,15.80896 -17.65801,8.99298 -29.313,20.71899 -36.68201,36.90399 -1.28898,2.83099 -3.155,6.88403 -4.14699,9.00702 -0.99301,2.12298 -3.04,6.52899 -4.55,9.78998 -1.509,3.26104 -2.99,5.77703 -3.291,5.591 -0.882,-0.54401 -0.631,-6.90601 0.72,-18.276 1.689,-14.21497 3.691,-21.86701 7.995,-30.55896 8.283,-16.73004 21.254,-30.58002 45.74499,-48.84503 21.41101,-15.96802 27.875,-22.745 35.02501,-36.72699 2.83499,-5.54297 4.956,-11.05402 4.44901,-11.56098 -0.319,-0.31805 -4.14901,0.24201 -11.05501,1.61896 -5.28301,1.05304 -21.219,0.71503 -31.636,-0.66998 -28.999,-3.85602 -32.014,-4.125 -46.64301,-4.15198 -11.63299,-0.021 -15.58499,0.20496 -20.12499,1.15295 -10.699,2.23505 -18.994,5.40302 -26.689301,10.19501 -5.012497,3.12103 -5.931396,3.89703 -19.975197,16.88001 -5.772606,5.33599 -10.766602,9.79901 -11.098,9.91699 -1.989006,0.70801 0.152,-4.33698 7.7202,-18.19 6.864594,-12.56598 16.1772,-23.25098 26.096998,-29.94501 12.9073,-8.70899 30.2463,-15.81098 50.2703,-20.59094 11.116,-2.65406 24.489,-6.34101 27.254,-7.51502 7.06999,-3.00104 11.603,-5.60004 17.023,-9.76098 5.63299,-4.32502 13.987,-12.45502 13.39799,-13.03803 -0.27699,-0.27502 -2.77699,-0.96899 -5.55499,-1.54199 -11.304,-2.32904 -22.7,-7.112 -37.301,-15.65302 -3.124,-1.82696 -5.77301,-3.32299 -5.88501,-3.32299 -0.11299,0 -2.18899,-1.20899 -4.61399,-2.68702 -8.036,-4.89801 -28.1,-14.54797 -35.611,-17.12701 -11.188,-3.84094 -17.4774,-4.95496 -27.986302,-4.95496 -12.074997,0 -16.040497,0.86597 -32.489498,7.09497 -14.8214,5.612 -18.241501,6.78803 -19.206501,6.60102 -1.455601,-0.28101 11.521198,-11.68299 20.8848,-18.349 11.324596,-8.06201 22.205799,-12.27899 36.995502,-14.336 15.999999,-2.22601 27.978999,-1.663 54.934999,2.57999 11.172,1.759 25.811,2.35501 32.302,1.31601 4.99699,-0.79999 19.20999,-4.81501 20.446,-5.77601 0.358,-0.27798 1.44701,-0.69598 2.42,-0.92898 0.973,-0.23203 1.76899,-0.82401 1.76899,-1.31403 0,-0.49099 -2.82299,-2.90997 -6.27299,-5.37597 -8.743,-6.24903 -16.64101,-14.31601 -25.96001,-26.517 C 164.623,451.07 156.101,441.00799 147.78999,432.919 c -9.20099,-8.95401 -13.61,-12.25302 -23.44499,-17.54501 -5.86,-3.15298 -15.952,-6.228 -23.5808,-7.18399 -2.907299,-0.36499 -10.794201,-0.69699 -17.5266,-0.73901 -12.533401,-0.078 -16.1008,-0.41898 -16.1008,-1.539 0,-0.34998 4.044701,-1.982 8.988297,-3.62699 20.996201,-6.98501 34.621903,-8.548 49.500903,-5.67599 6.10799,1.17798 20.31699,5.595 25.094,7.79998 9.62399,4.44202 20.226,10.05402 25.63899,13.573 2.04201,1.32602 3.82201,2.41202 3.955,2.41202 0.13401,0 2.125,1.14298 4.42501,2.53998 5.742,3.48901 16.11999,8.79202 20.16999,10.30701 5.49501,2.056 16.09201,3.901 24.836,4.32501 9.58001,0.46399 9.51001,0.53 5.59002,-5.27002 -3.92301,-5.80298 -9.17901,-16.612 -11.42002,-23.482 -1.09599,-3.362 -3.62099,-12.19198 -5.61099,-19.62298 -3.799,-14.18802 -9.261,-31.668 -11.256,-36.02802 -0.64801,-1.41501 -1.936,-4.31 -2.862,-6.43298 -6.836,-15.66702 -20.403,-30.57602 -34.127,-37.50501 -2.115,-1.06799 -6.88501,-3.294 -10.6,-4.94699 -6.866,-3.05401 -15.65,-7.09903 -17.33299,-7.98001 -3.778,-1.979 3.33499,-2.113 17.97599,-0.337 18.039,2.18899 27.172,5.19201 38.973,12.81799 13.171,8.51001 25.13501,20.60001 38.828,39.23401 14.772,20.104 19.45799,25.17801 29.18599,31.60199 4.85,3.20199 18.11902,9.89801 19.61502,9.89801 1.03998,0 1.069,0.414 -0.81201,-11.84601 -1.323,-8.62299 -1.22699,-17.461 0.31601,-29.00699 3.919,-29.33002 4.595,-37.453 4.30999,-51.79101 -0.362,-18.26398 -1.915,-25.405 -8.358,-38.43497 C 278.225,250.475 274.836,246.108 262.80899,233.49899 253.84,224.09599 251.315,220.953 252.731,220.953 c 0.371,0 5.08498,2.20799 10.47701,4.90599 17.237,8.62601 26.89398,15.88901 34.621,26.04001 4.582,6.019 6.142,8.623 10.556,17.62801 5.42499,11.06598 8.46298,19.871 13.207,38.27697 6.63898,25.75602 8.22299,29.96503 15.00098,39.85703 3.255,4.75198 13.59701,16.11798 14.66601,16.11798 0.29599,0 0.715,-0.79599 0.92899,-1.76999 3.50302,-15.87799 6.77301,-24.534 13.64502,-36.117 1.59799,-2.693 3.543,-6.055 4.323,-7.47 0.77899,-1.41501 2.50997,-4.45499 3.845,-6.75501 16.69,-28.74698 22.86398,-46.27698 22.85199,-64.89 -0.003,-4.11799 -0.30399,-9.32998 -0.66901,-11.58198 C 395.534,231.189 392.40701,220.603 390.742,216.771 c -1.82101,-4.192 -8.03799,-21.18399 -8.03799,-21.97 0,-1.585 11.53699,11.188 17.81198,19.719 11.80502,16.049 16.28601,31.751 16.28601,57.066 0,9.73099 -0.328,14.38299 -1.626,23.078 -0.89399,5.98999 -1.91599,13.06201 -2.27298,15.716 -0.35602,2.654 -0.91803,6.85199 -1.25,9.32901 -0.95603,7.15198 -0.74103,15.20398 0.58999,22.06998 1.43198,7.38901 5.54599,20.20102 7.10397,22.125 1.05201,1.29801 1.17402,1.189 5.62702,-5.02798 5.89001,-8.223 14.16501,-16.625 23.03,-23.38401 19.496,-14.86401 28.543,-22.33499 36.56601,-30.19601 13.87799,-13.59998 20.21499,-23.19 25.12198,-38.021 2.096,-6.337 2.89004,-13.38499 3.23098,-28.683 0.18903,-8.52198 0.61207,-16.194 0.94007,-17.04899 l 0.59594,-1.55499 0.73005,1.86499 c 3.25897,8.32299 7.14196,21.74099 8.77099,30.303 4.23297,22.254 -2.86999,48.27201 -21.51501,78.81101 -13.219,21.651 -16.20102,28.36298 -18.293,41.17499 -1.39301,8.535 -2.04901,19.67001 -1.189,20.20099 0.374,0.23202 2.719,-0.88498 5.20899,-2.482 6.035,-3.867 17.47,-9.56198 22.60101,-11.255 2.27698,-0.75098 9.06201,-2.68299 15.078,-4.29398 19.19501,-5.13901 34.055,-9.561 35.38398,-10.53 0.354,-0.25802 1.44799,-0.66101 2.43103,-0.89603 0.98199,-0.23498 3.29797,-1.11999 5.14599,-1.96798 1.84796,-0.84699 4.66297,-2.13001 6.25598,-2.85199 6.263,-2.83802 13.52002,-7.61402 20.09302,-13.22202 8.815,-7.522 14.672,-16.332 22.05701,-33.177 4.104,-9.362 7.03198,-15.03299 7.90399,-15.30701 0.66901,-0.211 0.758,1.08103 0.43799,6.39603 -0.80103,13.314 -2.78998,25.42798 -5.57599,33.95798 -5.64502,17.28702 -21.427,36.17602 -44.70703,53.50702 -15.10297,11.24398 -23.85199,18.21499 -26.45801,21.082 -5.87897,6.46798 -11.32599,14.82599 -14.93994,22.923 -1.10602,2.47699 -2.30304,5.04498 -2.66004,5.706 -0.36297,0.67199 -0.40496,1.445 -0.094,1.75598 0.31,0.30999 3.94598,-0.032 8.25501,-0.775 6.544,-1.13 9.44201,-1.27899 19.28198,-0.99399 6.36902,0.185 14.47601,0.78299 18.01404,1.32999 7.04394,1.08701 19.66998,2.578 31.203,3.68402 20.16498,1.93299 38.88299,-0.75601 53.34698,-7.66302 8.28199,-3.956 14.05097,-8.581 30.03498,-24.082 5.78503,-5.60999 8.61804,-7.491 8.61804,-5.723 0,0.98801 -5.75104,11.82502 -12.79804,24.11701 -7.31201,12.754 -20.48901,24.11099 -36.74096,31.668 -6.41706,2.98401 -7.36505,3.39499 -10.93702,4.74099 -1.94604,0.73401 -4.117,1.603 -4.82501,1.93201 -2.12903,0.98999 -11.46399,3.60901 -25.33801,7.107 -21.35498,5.38598 -25.479,6.95401 -35.435,13.46701 -5.84497,3.824 -17.77997,14.729 -16.93896,15.47699 0.27996,0.25 3.22497,1.086 6.54498,1.85901 5.51501,1.28399 11.94202,3.203 15.19501,4.53796 3.12597,1.28302 12.54199,5.95502 15.888,7.88306 2.01495,1.16198 5.63397,3.24798 8.04199,4.63598 13.55298,7.81397 17.79901,10.15796 24,13.25098 3.362,1.677 7.99402,3.84503 10.294,4.81702 2.29999,0.97302 5.16102,2.19799 6.35798,2.72198 5.02099,2.20001 19.56799,5.32099 26.67498,5.72302 9.69501,0.54901 21.24201,-1.06903 27.706,-3.88299 3.05401,-1.33002 12.48602,-4.888 12.95605,-4.888 0.22998,0 1.32996,-0.40601 2.44599,-0.90204 5.19897,-2.31299 11.281,-4.35297 12.35699,-4.146 0.88599,0.17005 -0.52197,1.711 -5.53601,6.06 -20.93097,18.15399 -32.63,23.99701 -54.01099,26.97504 -13.74603,1.914 -27.27502,1.17096 -53.39898,-2.93305 -4.77704,-0.75 -13.31702,-1.50995 -18.97901,-1.68695 -11.336,-0.35602 -16.031,0.357 -27.74499,4.21497 -8.138,2.67999 -10.552,3.80902 -10.14801,4.74701 0.19098,0.44201 2.13598,1.95898 4.323,3.37097 9.77398,6.31006 18.01501,14.513 28.11902,27.992 14.76599,19.698 27.15899,33.987 35.49499,40.92505 10.33197,8.59998 17.935,13.05701 27.68897,16.23297 9.49401,3.09101 12.07403,3.42603 29.88403,3.88001 9.26697,0.237 17.03998,0.62201 17.27496,0.85602 1.00903,1.01001 -1.01001,1.95898 -11.22796,5.28198 -13.35505,4.34302 -19.943,5.64899 -30.29303,6.00702 -8.763,0.30298 -14.44001,-0.362 -23.698,-2.776 -5.23499,-1.36499 -18.81,-6.33002 -21.88202,-8.00403 -0.58496,-0.31799 -3.08997,-1.57099 -5.56696,-2.78302 -5.716,-2.79596 -8.38104,-4.27796 -16.90704,-9.396 -3.79395,-2.27698 -8.92395,-5.35296 -11.401,-6.83496 -13.96295,-8.35602 -24.38794,-11.51599 -40.54596,-12.29101 -7.21503,-0.34601 -8.66998,-0.26398 -8.66901,0.48797 0,0.49701 1.30103,2.88202 2.89099,5.30005 3.16498,4.81598 8.469,15.44995 10.482,21.01697 0.70404,1.94598 2.64001,8.60498 4.302,14.797 11.28803,42.04699 16.784,55.16101 29.33002,69.98101 7.95398,9.396 15.289,14.32697 34.05701,22.89197 12.76098,5.82404 16.083,7.46405 16.083,7.94202 0,1.09204 -16.52002,-0.14801 -28.53302,-2.14197 -25.15301,-4.17505 -44.77502,-18.82501 -69.51703,-51.90204 -16.11798,-21.547 -20.51297,-25.96796 -33.19397,-33.388 -5.85101,-3.42297 -14.665,-7.297 -15.25601,-6.70599 -0.23599,0.237 0.051,3.53503 0.638,7.33099 2.19,14.14203 2.094,21.74902 -0.50198,40.034 -1.35202,9.52203 -3.34201,28.62305 -3.85501,36.99304 -0.99301,16.19501 2.23199,33.69598 8.53698,46.32196 3.62702,7.263 6.42103,10.86603 18.70902,24.12604 10.12903,10.92999 12.71204,14.15295 11.341,14.15295 -0.39001,0 -13.95199,-6.88897 -18.75799,-9.52899 -21.60401,-11.86499 -33.26102,-26.54901 -44.27903,-55.771 -0.93399,-2.47699 -3.56597,-11.828 -5.84899,-20.77996 -6.844,-26.83899 -9.35801,-33.39203 -16.405,-42.75702 -4.41098,-5.86298 -12.82199,-14.73499 -13.694,-14.44397 -0.388,0.12896 -0.94498,1.51495 -1.23999,3.07995 -2.07999,11.06299 -7.09299,23.97602 -13.84201,35.65601 -1.02198,1.76898 -2.95099,5.09802 -4.28598,7.39801 -2.715,4.67798 -3.82602,6.64899 -8.70102,15.44098 -5.202,9.38104 -6.20499,11.30005 -6.94699,13.284 -0.37699,1.00903 -1.60599,4.00604 -2.73001,6.66003 -3.021,7.133 -5.637,15.65301 -6.814,22.19598 -1.388,7.71399 -1.35599,19.72004 0.071,26.69904 0.92701,4.53198 5.40699,17.974 8.14899,24.448 0.85101,2.00995 5.05499,13.57599 5.05499,13.90899 0,1.01697 -1.737,-0.46405 -5.56399,-4.74102 z"
       id="path2881"
       inkscape:connector-curvature="0"
       style="fill:#ffff00" />
  </g>
</svg>
